<svg width="389" height="240" viewBox="0 0 389 240" fill="none" xmlns="http://www.w3.org/2000/svg">
    <path
        d="M381.613 242.562H7.52211C4.96846 242.56 2.52022 241.595 0.714506 239.88C-1.0912 238.165 -2.10692 235.84 -2.1098 233.415V14.3547C-2.10772 12.5781 -1.36363 10.8747 -0.040766 9.6184C1.28209 8.36208 3.07569 7.65537 4.94653 7.65332H384.067C385.97 7.65537 387.794 8.37429 389.14 9.65233C390.486 10.9304 391.243 12.6632 391.245 14.4706V233.415C391.242 235.84 390.227 238.165 388.421 239.88C386.615 241.595 384.167 242.56 381.613 242.562Z"
        fill="#F2F2F2" />
    <path
        d="M367.967 229.609H19.3235C14.2127 229.609 10.0549 225.911 10.0549 221.366V30.6055C10.0549 27.2349 13.136 24.4926 16.9231 24.4926H370.253C374.103 24.4926 377.235 27.2801 377.235 30.7062V221.366C377.235 225.911 373.077 229.609 367.967 229.609Z"
        fill="white" />
    <path
        d="M391.111 13.8316H-2.245V9.17467C-2.24129 6.74149 -1.22142 4.40906 0.590858 2.68908C2.40314 0.969089 4.85982 0.00200875 7.42198 0H381.444C384.006 0.00199703 386.463 0.969069 388.275 2.68906C390.087 4.40905 391.107 6.74148 391.111 9.17467V13.8316Z"
        fill="#CCCCCC" />
    <path
        d="M15.3233 9.30411C16.7042 9.30411 17.8237 8.24097 17.8237 6.92952C17.8237 5.61807 16.7042 4.55493 15.3233 4.55493C13.9423 4.55493 12.8228 5.61807 12.8228 6.92952C12.8228 8.24097 13.9423 9.30411 15.3233 9.30411Z"
        fill="white" />
    <path
        d="M24.8144 9.30411C26.1954 9.30411 27.3149 8.24097 27.3149 6.92952C27.3149 5.61807 26.1954 4.55493 24.8144 4.55493C23.4335 4.55493 22.314 5.61807 22.314 6.92952C22.314 8.24097 23.4335 9.30411 24.8144 9.30411Z"
        fill="white" />
    <path
        d="M34.3056 9.30411C35.6866 9.30411 36.806 8.24097 36.806 6.92952C36.806 5.61807 35.6866 4.55493 34.3056 4.55493C32.9246 4.55493 31.8051 5.61807 31.8051 6.92952C31.8051 8.24097 32.9246 9.30411 34.3056 9.30411Z"
        fill="white" />
    <path
        d="M125.756 194.129H38.8715C36.1631 194.126 33.5665 193.103 31.6513 191.284C29.7362 189.465 28.6589 186.999 28.6558 184.427V86.7732C28.6581 84.8496 29.4637 83.0053 30.896 81.6451C32.3283 80.2848 34.2703 79.5197 36.2959 79.5175H128.21C130.268 79.5197 132.241 80.2971 133.696 81.679C135.151 83.061 135.97 84.9347 135.972 86.8891V184.427C135.969 186.999 134.892 189.465 132.977 191.284C131.061 193.103 128.465 194.126 125.756 194.129ZM36.2959 80.6262C34.5798 80.6281 32.9346 81.2763 31.7212 82.4287C30.5077 83.5811 29.8252 85.1435 29.8233 86.7732V184.427C29.826 186.705 30.7802 188.889 32.4765 190.5C34.1727 192.111 36.4726 193.017 38.8715 193.02H125.756C128.155 193.017 130.455 192.111 132.151 190.5C133.848 188.889 134.802 186.705 134.804 184.427V86.8891C134.803 85.2287 134.107 83.6368 132.871 82.4626C131.634 81.2885 129.958 80.6281 128.21 80.6262H36.2959Z"
        fill="#3F3D56" />
    <path
        d="M82.3139 141.95C92.2191 141.95 100.249 134.325 100.249 124.918C100.249 115.511 92.2191 107.886 82.3139 107.886C72.4087 107.886 64.3789 115.511 64.3789 124.918C64.3789 134.325 72.4087 141.95 82.3139 141.95Z"
        fill="#6C63FF" />
    <path
        d="M111.046 165.76H53.5813V165.587C53.5873 160.564 55.6909 155.749 59.4306 152.198C63.1703 148.646 68.2407 146.648 73.5294 146.643H91.0984C96.3871 146.648 101.457 148.646 105.197 152.198C108.937 155.749 111.04 160.564 111.046 165.587V165.76Z"
        fill="#6C63FF" />
    <path
        d="M166.015 175.987H352.721C355.198 175.987 357.574 175.052 359.325 173.389C361.077 171.725 362.061 169.469 362.061 167.117V86.9843C362.061 84.6318 361.077 82.3757 359.325 80.7123C357.574 79.0489 355.198 78.1144 352.721 78.1144H166.015C163.537 78.1144 161.162 79.0489 159.41 80.7123C157.659 82.3757 156.675 84.6318 156.675 86.9843V167.117C156.675 169.469 157.659 171.725 159.41 173.389C161.162 175.052 163.537 175.987 166.015 175.987Z"
        fill="#F2F2F2" />
    <path
        d="M332.337 131.485H183.48C182.242 131.485 181.054 131.018 180.178 130.187C179.302 129.355 178.81 128.227 178.81 127.051C178.81 125.874 179.302 124.746 180.178 123.915C181.054 123.083 182.242 122.616 183.48 122.616H332.337C333.576 122.616 334.763 123.083 335.639 123.915C336.515 124.746 337.007 125.874 337.007 127.051C337.007 128.227 336.515 129.355 335.639 130.187C334.763 131.018 333.576 131.485 332.337 131.485Z"
        fill="white" />
    <path
        d="M332.337 151.443H183.48C182.242 151.443 181.054 150.975 180.178 150.144C179.302 149.312 178.81 148.184 178.81 147.008C178.81 145.832 179.302 144.704 180.178 143.872C181.054 143.04 182.242 142.573 183.48 142.573H332.337C333.576 142.573 334.763 143.04 335.639 143.872C336.515 144.704 337.007 145.832 337.007 147.008C337.007 148.184 336.515 149.312 335.639 150.144C334.763 150.975 333.576 151.443 332.337 151.443Z"
        fill="white" />
    <path
        d="M306.068 112.637H183.48C182.242 112.637 181.054 112.17 180.178 111.338C179.302 110.506 178.81 109.378 178.81 108.202C178.81 107.026 179.302 105.898 180.178 105.066C181.054 104.234 182.242 103.767 183.48 103.767H306.068C307.307 103.767 308.495 104.234 309.37 105.066C310.246 105.898 310.738 107.026 310.738 108.202C310.738 109.378 310.246 110.506 309.37 111.338C308.495 112.17 307.307 112.637 306.068 112.637Z"
        fill="white" />
</svg>